<svg xmlns="http://www.w3.org/2000/svg" width="400" height="300" viewBox="0 0 400 400">

    <defs>
        <linearGradient id="cup-base" x1="0" x2="0" y1="0" y2="1">
            <stop offset="0%" stop-color="#fce2db"  />
            <stop offset="30%" stop-color="#fce2db" />
            <stop offset="30%" stop-color="#6d7781" />
            <stop offset="60%" stop-color="#030027" />
            <stop offset="60%" stop-color="#dfcdaa" />
            <stop offset="100%" stop-color="#dfcdaa"/>
        </linearGradient>
        <linearGradient id="cup-top" x1="0" x2="1" y1="0" y2="1">
            <stop offset="0%" stop-color="#6d7781"/>
            <stop offset="100%" stop-color="#030027"/>
        </linearGradient>
        <linearGradient id="not" x1="0" x2="0" y1="0" y2="1">
            <stop offset="0%" stop-color="#151e3f"/>
            <stop offset="100%" stop-color="#030027"/>
        </linearGradient>
        <linearGradient id="bg" x1="0" x2="0" y1="0" y2="1">
            <stop offset="0%" stop-color="black" stop-opacity="0"/>
            <stop offset="100%" stop-color="black" stop-opacity=".4"/>
        </linearGradient>
    </defs>
    <style>
        #screen{
            ;
        }
    </style>
    <g class="container" transform="translate(0 -100)">

        <rect width="170" height="400" fill="url(#bg)" transform="translate(230 0)" />
        
        <g class="coffee" transform="translate(120 240)">
            <g class="cup">
                <polygon points="2,0 38,0 35,60 5,60" fill="url(#cup-base)"/>
                <polygon points="0,0 0,5 40,5 40,0 35,-10 5,-10" fill="url(#cup-top)"/>
                <ellipse rx="15" ry="2" cx="20" cy="-10" fill="url(#cup-top)"/>
            </g>
        </g>
        <g class="notebook" transform="translate(190 190)">
            <rect width="170" height="100" fill="#151e3f" transform="translate(-10 0)"/>
            <rect width="160" height="90" x="5" y="5" transform="translate(-10 0)" fill="blueviolet" />
            <path d="M -50,100  C -50,100 -50,110 -40,110 L 170,110 170,100 Z" fill="url(#not)" transform="translate(-10 0)" />
            <path d="M 90,100 C 90,100 90,110 100,110 L 170,110 170,100 Z" fill="#030027" transform="translate(-10 0)" />
            <g class="github" fill="#f2f3d9" transform=" translate(45 25) scale(3 3)">
                <path d="M8 0C3.58 0 0 3.58 0 8c0 3.54 2.29 6.53 5.47 7.59.4.07.55-.17.55-.38 0-.19-.01-.82-.01-1.49-2.01.37-2.53-.49-2.69-.94-.09-.23-.48-.94-.82-1.13-.28-.15-.68-.52-.01-.53.63-.01 1.08.58 1.23.82.72 1.21 1.87.87 2.33.66.07-.52.28-.87.51-1.07-1.78-.2-3.64-.89-3.64-3.95 0-.87.31-1.59.82-2.15-.08-.2-.36-1.02.08-2.12 0 0 .67-.21 2.2.82.64-.18 1.32-.27 2-.27.68 0 1.36.09 2 .27 1.53-1.04 2.2-.82 2.2-.82.44 1.1.16 1.92.08 2.12.51.56.82 1.27.82 2.15 0 3.07-1.87 3.75-3.65 3.95.29.25.54.73.54 1.48 0 1.07-.01 1.93-.01 2.2 0 .21.15.46.55.38A8.012 8.012 0 0 0 16 8c0-4.42-3.58-8-8-8z"/>
            </g>
        </g>
        <g class="mouse" transform="translate(300 300)">
            <ellipse rx="20" ry="10" fill="url(#not)"/>
        </g>
        <g class="table" transform="translate(0 300)">
            <rect width="350" height="20" x="50" />
            <polygon points="400,20 300,20 400,50" fill="#b4b4b4" />
            <polygon points="400,20 300,20 400,50" fill="#b4b4b4" transform="translate(-170 0)"/>
        </g> 


    </g>
</svg>